<?xml version="1.0" encoding="utf-8"?>
<!-- Generator: Adobe Illustrator 23.0.3, SVG Export Plug-In . SVG Version: 6.00 Build 0)  -->
<svg version="1.1" id="Icons" xmlns="http://www.w3.org/2000/svg" xmlns:xlink="http://www.w3.org/1999/xlink" x="0px" y="0px"
	 viewBox="0 0 32 32" style="enable-background:new 0 0 32 32;" xml:space="preserve">
<path d="M25,8.9C24.9,8.4,24.5,8,24,8h-3V7c0-2.8-2.2-5-5-5s-5,2.2-5,5v1H8C7.5,8,7.1,8.4,7,8.9l-2,20c0,0.3,0.1,0.6,0.3,0.8
	S5.7,30,6,30h20c0.3,0,0.6-0.1,0.7-0.3s0.3-0.5,0.3-0.8L25,8.9z M13,7c0-1.7,1.3-3,3-3s3,1.3,3,3v1h-6V7z"/>
</svg>
