<?xml version="1.0" encoding="utf-8"?>
<!-- Generator: Adobe Illustrator 16.0.0, SVG Export Plug-In . SVG Version: 6.00 Build 0)  -->
<!DOCTYPE svg PUBLIC "-//W3C//DTD SVG 1.1//EN" "http://www.w3.org/Graphics/SVG/1.1/DTD/svg11.dtd">
<svg version="1.1" id="Layer_1" xmlns="http://www.w3.org/2000/svg" xmlns:xlink="http://www.w3.org/1999/xlink" x="0px" y="0px"
	 width="48px" height="48px" viewBox="0 0 48 48" enable-background="new 0 0 48 48" xml:space="preserve">
<g id="color_55_">
	<g>
		<path fill="#F16362" d="M46,28c0-0.553-0.447-2-1-2H5c-0.553,0-1,0.447-1,1c0,0.101,0.029,0.191,0.057,0.283l-0.015,0.004l6,18
			l0.015-0.004C10.181,45.694,10.548,46,11,46h29c0.452,0,0.819-0.306,0.943-0.717l0.015,0.004l5-17l-0.015-0.004
			C45.971,28.191,46,28.101,46,28z"/>
	</g>
</g>
<g id="outline_53_">
	<g>
		<path fill="#384D68" d="M24,40c0.553,0,1-0.447,1-1V29c0-0.553-0.447-1-1-1s-1,0.447-1,1v10C23,39.553,23.447,40,24,40z M46,23
			c0-0.553-0.447-1-1-1H34.677L26.929,2.629L26.925,2.63C26.777,2.262,26.421,2,26,2c-0.553,0-1,0.447-1,1
			c0,0.131,0.028,0.255,0.074,0.37l-0.003,0.001l0.007,0.018l0.001,0.001L32.523,22H15.477l7.444-18.61l0.001-0.001l0.007-0.018
			L22.925,3.37C22.972,3.255,23,3.131,23,3c0-0.553-0.447-1-1-1c-0.421,0-0.777,0.262-0.926,0.63l-0.003-0.001L13.323,22H3
			c-0.553,0-1,0.447-1,1c0,0.101,0.029,0.191,0.057,0.283l-0.015,0.004l6,20l0.015-0.004C8.181,43.694,8.548,44,9,44h30
			c0.452,0,0.819-0.306,0.943-0.717l0.015,0.004l6-20l-0.015-0.004C45.971,23.191,46,23.101,46,23z M38.256,42H9.744l-5.4-18h39.313
			L38.256,42z M32,40c0.553,0,1-0.447,1-1V29c0-0.553-0.447-1-1-1s-1,0.447-1,1v10C31,39.553,31.447,40,32,40z M16,40
			c0.553,0,1-0.447,1-1V29c0-0.553-0.447-1-1-1s-1,0.447-1,1v10C15,39.553,15.447,40,16,40z"/>
	</g>
</g>
</svg>
